<svg width="200" height="60" viewBox="0 0 200 60" fill="none" xmlns="http://www.w3.org/2000/svg">
  <!-- Globe with oval border -->
  <ellipse cx="30" cy="30" rx="25" ry="27" fill="none" stroke="#6366f1" stroke-width="2"/>
  
  <!-- Globe background -->
  <circle cx="30" cy="30" r="20" fill="#e11d48"/>
  
  <!-- Continental shapes -->
  <path d="M15 20 Q20 18 25 22 Q28 25 30 20 Q32 25 35 22 Q40 18 45 20 L45 25 Q40 28 35 25 Q32 28 30 25 Q28 28 25 25 Q20 28 15 25 Z" fill="#6b46c1" opacity="0.8"/>
  <path d="M12 35 Q18 32 22 36 Q25 38 28 35 Q30 38 32 35 Q35 32 40 35 L40 40 Q35 42 32 40 Q30 42 28 40 Q25 42 22 40 Q18 42 12 40 Z" fill="#6b46c1" opacity="0.8"/>
  
  <!-- Airplane icon -->
  <path d="M25 25 L35 35 M25 35 L35 25" stroke="white" stroke-width="3" stroke-linecap="round"/>
  <path d="M30 20 L30 40" stroke="white" stroke-width="2" stroke-linecap="round"/>
  <path d="M20 30 L40 30" stroke="white" stroke-width="2" stroke-linecap="round"/>
  
  <!-- Text -->
  <text x="65" y="25" font-family="Inter, sans-serif" font-size="18" font-weight="700" fill="#374151">NOMAD</text>
  <text x="65" y="45" font-family="Inter, sans-serif" font-size="14" font-weight="400" fill="#6b7280">NETWORK</text>
</svg>